<svg xmlns="http://www.w3.org/2000/svg" width="24" height="24" fill="none"><path fill="#000" fill-rule="evenodd" d="M8.484 3.384A5.115 5.115 0 0 1 12 2c1.31 0 2.575.492 3.516 1.384A4.736 4.736 0 0 1 16.89 5.79h2.908c.622 0 1.202.496 1.202 1.19v13.83c0 .7-.579 1.19-1.202 1.19H4.188a1.21 1.21 0 0 1-.811-.327A1.19 1.19 0 0 1 3 20.836V6.98c0-.701.579-1.19 1.202-1.19H7.11c.203-.91.68-1.748 1.374-2.406zM9.2 5.79h5.6a2.774 2.774 0 0 0-.66-.954A3.116 3.116 0 0 0 12 4a3.11 3.11 0 0 0-2.14.836 2.775 2.775 0 0 0-.66.953zm-4.2 2V20h14v-5.105h-7v-2h7V7.789H5z" clip-rule="evenodd"/></svg>