<svg xmlns="http://www.w3.org/2000/svg" width="24" height="24" fill="none"><path fill="#000" fill-rule="evenodd" d="M12 4c-1.249 0-2.45.503-3.337 1.404a4.858 4.858 0 0 0-1.39 3.41v5.024l-.684 1.425h10.82l-.683-1.425V8.813a4.857 4.857 0 0 0-1.39-3.409A4.684 4.684 0 0 0 12 4zM7.238 4A6.688 6.688 0 0 1 12 2c1.79 0 3.502.721 4.762 2a6.858 6.858 0 0 1 1.965 4.813v4.57l1.862 3.88H3.41l1.863-3.88v-4.57c0-1.802.705-3.533 1.965-4.812zM12 22c-2.221 0-4.267-1.594-4.267-3.842h2c0 .891.88 1.842 2.267 1.842s2.267-.95 2.267-1.842h2C16.267 20.406 14.22 22 12 22z" clip-rule="evenodd"/></svg>