<svg xmlns="http://www.w3.org/2000/svg" width="24" height="24" fill="none"><path fill="#000" fill-rule="evenodd" d="M7.5 5C5.603 5 4 6.61 4 8.672c0 .735.31 1.472.675 2.072a6.48 6.48 0 0 0 .681.918l.007.008L12 18.56l6.636-6.89h.001l.007-.007.038-.042a6.453 6.453 0 0 0 .643-.876c.366-.6.675-1.337.675-2.072C20 6.61 18.398 5 16.5 5S13 6.61 13 8.672h-2C11 6.61 9.398 5 7.5 5zm4.5.412C11.01 3.96 9.375 3 7.5 3 4.428 3 2 5.577 2 8.672c0 1.258.512 2.366.967 3.113a8.48 8.48 0 0 0 .86 1.167l.065.073.02.022.007.007.002.003L12 21.44l8.076-8.382.004-.004.007-.007.02-.022c.017-.018.04-.042.067-.073a8.48 8.48 0 0 0 .858-1.167c.457-.747.97-1.855.97-3.113C22 5.576 19.572 3 16.5 3c-1.875 0-3.51.96-4.5 2.412z" clip-rule="evenodd"/></svg>