<svg xmlns="http://www.w3.org/2000/svg" width="24" height="24" fill="none"><path fill="#000" d="M13.637 22h-3.25c-.28 0-.55-.09-.78-.25-.23-.17-.4-.39-.5-.66l-.56-1.601a8.17 8.17 0 0 1-1.53-.852l-1.77.35c-.27.05-.55.03-.81-.09-.27-.12-.48-.31-.62-.55l-1.61-2.661a1.39 1.39 0 0 1-.19-.85c.03-.29.15-.56.35-.78l1.15-1.252a7.5 7.5 0 0 1 0-1.64l-1.15-1.23c-.2-.211-.32-.491-.36-.781-.03-.29.04-.6.19-.85l1.62-2.672c.14-.24.35-.43.61-.54.26-.12.54-.15.81-.09l1.77.35c.48-.33.99-.62 1.53-.85l.55-1.592c.09-.26.26-.49.49-.66.24-.17.51-.25.79-.25h3.25c.28 0 .56.09.79.25.23.17.4.4.5.66l.56 1.591a8.24 8.24 0 0 1 1.53.852l1.77-.35c.28-.05.55-.02.81.09s.47.3.62.54l1.61 2.671c.15.25.22.55.19.84-.03.3-.16.58-.36.79l-1.15 1.242a7.5 7.5 0 0 1 0 1.64l1.15 1.24c.2.221.33.491.36.791.03.29-.04.58-.19.83l-1.61 2.672c-.14.24-.36.43-.61.54-.27.12-.55.14-.82.09l-1.76-.34c-.48.33-.99.62-1.53.85l-.55 1.591c-.09.27-.26.5-.5.66-.22.16-.5.25-.79.25V22zm-2.8-2h2.34l.71-2.052.45-.16a6.68 6.68 0 0 0 1.81-1l.36-.28 2.21.43 1.13-1.872-1.48-1.6.08-.48c.11-.65.11-1.321 0-1.972l-.08-.48 1.48-1.6-1.13-1.871-2.21.43-.36-.28a6.68 6.68 0 0 0-1.81-1l-.45-.16-.71-2.042h-2.34l-.71 2.052-.45.16c-.65.24-1.26.57-1.81 1l-.36.28-2.21-.43-1.13 1.871 1.48 1.601-.08.48c-.11.65-.11 1.321 0 1.971l.08.49-1.48 1.602 1.13 1.87 2.21-.43.36.28c.55.43 1.16.76 1.81 1l.45.16.71 2.042V20zm3.97-7.005h-5.6v-2h5.6v2z"/></svg>