<svg xmlns="http://www.w3.org/2000/svg" width="24" height="24" fill="none"><path fill="#000" fill-rule="evenodd" d="M8.621 3.53a4.915 4.915 0 0 1 3.38-1.33c1.26 0 2.476.474 3.379 1.33a4.528 4.528 0 0 1 1.347 2.46h3.07c.52 0 1.003.416 1.003.989v13.83c0 .582-.48.99-1.002.99H4.19a1.01 1.01 0 0 1-.677-.273.99.99 0 0 1-.313-.696V6.98c0-.582.48-.99 1.002-.99h3.071a4.527 4.527 0 0 1 1.348-2.46zm.297 2.46h6.166a2.95 2.95 0 0 0-.805-1.3A3.316 3.316 0 0 0 12 3.8c-.862 0-1.681.325-2.278.89a2.95 2.95 0 0 0-.805 1.3zM4.8 7.59V20.2h14.4v-5.505H12v-1.6h7.2V7.589H4.8z" clip-rule="evenodd"/></svg>