<svg xmlns="http://www.w3.org/2000/svg" width="24" height="24" fill="none"><path fill="#000" fill-rule="evenodd" d="M12 3.8a4.884 4.884 0 0 0-3.48 1.464 5.058 5.058 0 0 0-1.447 3.55v4.98l-.802 1.67h11.46l-.803-1.67v-4.98a5.06 5.06 0 0 0-1.447-3.55A4.884 4.884 0 0 0 12 3.8zm-4.62.34A6.484 6.484 0 0 1 12 2.2c1.735 0 3.396.7 4.62 1.942a6.658 6.658 0 0 1 1.907 4.673v4.616l1.744 3.634H3.73l1.743-3.634V8.812c0-1.75.685-3.43 1.908-4.672zM12 21.8c-2.138 0-4.067-1.53-4.067-3.64h1.6c0 1.026.997 2.04 2.467 2.04s2.467-1.014 2.467-2.04h1.6c0 2.11-1.93 3.64-4.067 3.64z" clip-rule="evenodd"/></svg>