<svg xmlns="http://www.w3.org/2000/svg" width="24" height="24" fill="none"><path fill="#000" fill-rule="evenodd" d="M7.5 4.8c-2.015 0-3.7 1.706-3.7 3.872 0 .787.33 1.56.704 2.176a6.672 6.672 0 0 0 .706.95l.008.01L12 18.848l6.78-7.04.01-.01.04-.045a6.68 6.68 0 0 0 .666-.905c.375-.616.705-1.39.705-2.177 0-2.166-1.684-3.87-3.7-3.87s-3.7 1.705-3.7 3.87h-1.6c0-2.165-1.685-3.87-3.7-3.87zm4.5.982C11.07 4.238 9.412 3.2 7.5 3.2c-2.955 0-5.3 2.48-5.3 5.472 0 1.205.492 2.277.938 3.01a8.27 8.27 0 0 0 .837 1.137l.064.068.017.02.006.005.002.003L12 21.153l7.933-8.234v-.003l.003-.003.006-.006.02-.02a6.737 6.737 0 0 0 .275-.32 8.28 8.28 0 0 0 .625-.89c.446-.73.938-1.803.938-3.008 0-2.993-2.345-5.472-5.3-5.472-1.912 0-3.57 1.038-4.5 2.582z" clip-rule="evenodd"/></svg>