<svg xmlns="http://www.w3.org/2000/svg" width="24" height="24" fill="none"><path fill="#000" d="M13.642 21.8h-3.254c-.24 0-.47-.07-.67-.21-.2-.14-.34-.33-.42-.56l-.592-1.68a8.866 8.866 0 0 1-1.652-.907l-1.853.36a1.1 1.1 0 0 1-.69-.08c-.23-.1-.41-.26-.53-.47l-1.61-2.66c-.13-.22-.19-.47-.16-.72s.13-.48.3-.67l1.22-1.308c-.07-.59-.07-1.18 0-1.77l-1.223-1.32c-.17-.18-.28-.42-.3-.67-.03-.25.03-.51.16-.72L3.98 5.75c.12-.2.3-.36.52-.46.22-.1.46-.12.69-.08l1.855.36c.51-.36 1.06-.67 1.652-.91l.58-1.68a1.175 1.175 0 0 1 1.092-.78h3.254c.24 0 .47.07.67.21.2.14.34.34.42.56l.582 1.68a8.86 8.86 0 0 1 1.652.908l1.853-.36c.23-.05.47-.02.69.08.22.1.4.26.53.46l1.612 2.67c.13.22.19.47.16.72s-.13.49-.31.68l-1.212 1.307c.07.59.07 1.18 0 1.77l1.222 1.31c.17.19.28.42.3.67.03.25-.03.5-.16.71L20.02 18.24a1.165 1.165 0 0 1-1.22.54l-1.855-.36c-.51.37-1.07.67-1.652.91l-.58 1.678c-.08.23-.23.42-.42.56-.19.14-.43.21-.67.21l.02.02zm-2.944-1.6h2.634l.73-2.088.36-.13a6.83 6.83 0 0 0 1.873-1.03l.29-.22 2.264.44 1.28-2.12-1.523-1.638.06-.39c.11-.68.11-1.36 0-2.038l-.07-.39 1.522-1.64-1.282-2.118-2.264.44-.29-.22a6.71 6.71 0 0 0-1.873-1.03l-.36-.13-.73-2.09h-2.624l-.73 2.09-.36.13c-.67.24-1.303.59-1.873 1.03l-.29.22-2.264-.44L3.9 8.955l1.52 1.64-.06.39c-.11.68-.11 1.358 0 2.037l.06.39-1.52 1.64 1.28 2.118 2.264-.44.29.22c.56.44 1.192.79 1.873 1.03l.36.13.73 2.09zm3.925-7.395H9.407v-1.6h5.206v1.6h.01z"/></svg>