<svg xmlns="http://www.w3.org/2000/svg" width="24" height="24" fill="none"><path fill="#000" fill-rule="evenodd" d="M10.387 22h3.25v-.01c.29 0 .57-.09.79-.25.24-.16.41-.39.5-.66l.55-1.591a8.792 8.792 0 0 0 1.53-.852l1.76.34c.27.05.55.03.82-.09.25-.11.47-.3.61-.54l1.61-2.671c.15-.25.22-.54.19-.83-.03-.3-.16-.57-.36-.79l-1.15-1.242a7.5 7.5 0 0 0 0-1.64l1.15-1.24a1.35 1.35 0 0 0 .17-1.631l-1.61-2.672c-.15-.24-.36-.43-.62-.54-.26-.11-.53-.14-.81-.09l-1.77.35c-.48-.34-.99-.62-1.53-.85l-.56-1.592c-.1-.26-.27-.49-.5-.66-.23-.16-.51-.25-.79-.25h-3.25c-.28 0-.55.08-.79.25-.23.17-.4.4-.49.66L8.537 4.5c-.54.231-1.05.522-1.53.852l-1.77-.35c-.27-.06-.55-.03-.81.09-.26.11-.47.3-.61.54l-1.62 2.671c-.15.25-.22.56-.19.85.04.29.16.57.36.78l1.15 1.232a7.5 7.5 0 0 0 0 1.64l-1.15 1.25a1.366 1.366 0 0 0-.16 1.631l1.61 2.662c.14.24.35.43.62.55.26.12.54.14.81.09l1.77-.35c.48.34.99.62 1.53.85l.56 1.601a1.365 1.365 0 0 0 1.28.91zM15 11H9v2h6v-2z" clip-rule="evenodd"/></svg>