<svg xmlns="http://www.w3.org/2000/svg" xmlns:xlink="http://www.w3.org/1999/xlink" width="0" height="0" style="display:none;"><symbol id="ruler-ic_arrow_left"><path fill="#000" fill-rule="evenodd" d="M11.066 4.184a.8.8 0 0 1 0 1.132L4.93 11.45H21a.8.8 0 0 1 0 1.6H5.03l6.016 5.615a.8.8 0 1 1-1.092 1.17l-7.5-7a.8.8 0 0 1-.02-1.15l7.5-7.5a.8.8 0 0 1 1.132 0z" clip-rule="evenodd"></path></symbol><symbol id="ruler-ic_bag"><path fill="#000" fill-rule="evenodd" d="M8.621 3.53a4.915 4.915 0 0 1 3.38-1.33c1.26 0 2.476.474 3.379 1.33a4.528 4.528 0 0 1 1.347 2.46h3.07c.52 0 1.003.416 1.003.989v13.83c0 .582-.48.99-1.002.99H4.19a1.01 1.01 0 0 1-.677-.273.99.99 0 0 1-.313-.696V6.98c0-.582.48-.99 1.002-.99h3.071a4.527 4.527 0 0 1 1.348-2.46zm.297 2.46h6.166a2.95 2.95 0 0 0-.805-1.3A3.316 3.316 0 0 0 12 3.8c-.862 0-1.681.325-2.278.89a2.95 2.95 0 0 0-.805 1.3zM4.8 7.59V20.2h14.4v-5.505H12v-1.6h7.2V7.589H4.8z" clip-rule="evenodd"></path></symbol><symbol id="ruler-ic_bell"><path fill="#000" fill-rule="evenodd" d="M12 3.8a4.884 4.884 0 0 0-3.48 1.464 5.058 5.058 0 0 0-1.447 3.55v4.98l-.802 1.67h11.46l-.803-1.67v-4.98a5.06 5.06 0 0 0-1.447-3.55A4.884 4.884 0 0 0 12 3.8zm-4.62.34A6.484 6.484 0 0 1 12 2.2c1.735 0 3.396.7 4.62 1.942a6.658 6.658 0 0 1 1.907 4.673v4.616l1.744 3.634H3.73l1.743-3.634V8.812c0-1.75.685-3.43 1.908-4.672zM12 21.8c-2.138 0-4.067-1.53-4.067-3.64h1.6c0 1.026.997 2.04 2.467 2.04s2.467-1.014 2.467-2.04h1.6c0 2.11-1.93 3.64-4.067 3.64z" clip-rule="evenodd"></path></symbol><symbol id="ruler-ic_box"><path fill="#000" fill-rule="evenodd" d="M4.8 4.8v14.4h14.4V4.8h-3.9V12h-1.6V4.8h-3.4V12H8.7V4.8H4.8zm-1.6-.55c0-.58.47-1.05 1.05-1.05h15.5c.58 0 1.05.47 1.05 1.05v15.5c0 .58-.47 1.05-1.05 1.05H4.25c-.58 0-1.05-.47-1.05-1.05V4.25z" clip-rule="evenodd"></path></symbol><symbol id="ruler-ic_chevron_down"><path fill="#000" fill-rule="evenodd" d="m12 17.131 8.566-8.564-1.132-1.132L12 14.87 4.566 7.433 3.434 8.566 12 17.13z" clip-rule="evenodd"></path></symbol><symbol id="ruler-ic_chevron_left"><path fill="#000" fill-rule="evenodd" d="m6.869 12 8.564-8.566 1.132 1.132L9.13 12l7.436 7.434-1.132 1.132L6.87 12z" clip-rule="evenodd"></path></symbol><symbol id="ruler-ic_chevron_right"><path fill="#000" fill-rule="evenodd" d="m17.131 12-8.564 8.566-1.132-1.132L14.87 12 7.433 4.566l1.132-1.132L17.13 12z" clip-rule="evenodd"></path></symbol><symbol id="ruler-ic_chevron_up"><path fill="#000" fill-rule="evenodd" d="m12 6.869 8.566 8.564-1.132 1.132L12 9.13l-7.434 7.436-1.132-1.132L12 6.87z" clip-rule="evenodd"></path></symbol><symbol id="ruler-ic_close"><path fill="#000" fill-rule="evenodd" d="M4.434 4.434a.8.8 0 0 1 1.132 0L12 10.87l6.434-6.436a.8.8 0 1 1 1.132 1.132L13.13 12l6.436 6.434a.8.8 0 1 1-1.132 1.132L12 13.13l-6.434 6.436a.8.8 0 0 1-1.132-1.132L10.87 12 4.433 5.566a.8.8 0 0 1 0-1.132z" clip-rule="evenodd"></path></symbol><symbol id="ruler-ic_document"><path fill="#000" fill-rule="evenodd" d="M3.2 4.25c0-.58.47-1.05 1.05-1.05h15.5c.58 0 1.05.47 1.05 1.05v15.5c0 .58-.47 1.05-1.05 1.05H4.25c-.58 0-1.05-.47-1.05-1.05V4.25zm1.6.55v14.4h14.4V4.8H4.8z" clip-rule="evenodd"></path><path fill="#000" fill-rule="evenodd" d="M7.7 7.2h8.6v1.6H7.7V7.2zM7.7 11.2h8.6v1.6H7.7v-1.6zM7.7 15.2h8.6v1.6H7.7v-1.6z" clip-rule="evenodd"></path></symbol><symbol id="ruler-ic_download"><path fill="#000" fill-rule="evenodd" d="M11.2 13.704V3h1.6v10.704l3.665-3.299 1.07 1.19L12 16.576l-5.535-4.981 1.07-1.19 3.665 3.299zM18 19.7v1.6H6v-1.6h12z" clip-rule="evenodd"></path></symbol><symbol id="ruler-ic_heart"><path fill="#000" fill-rule="evenodd" d="M7.5 4.8c-2.015 0-3.7 1.706-3.7 3.872 0 .787.33 1.56.704 2.176a6.672 6.672 0 0 0 .706.95l.008.01L12 18.848l6.78-7.04.01-.01.04-.045a6.68 6.68 0 0 0 .666-.905c.375-.616.705-1.39.705-2.177 0-2.166-1.684-3.87-3.7-3.87s-3.7 1.705-3.7 3.87h-1.6c0-2.165-1.685-3.87-3.7-3.87zm4.5.982C11.07 4.238 9.412 3.2 7.5 3.2c-2.955 0-5.3 2.48-5.3 5.472 0 1.205.492 2.277.938 3.01a8.27 8.27 0 0 0 .837 1.137l.064.068.017.02.006.005.002.003L12 21.153l7.933-8.234v-.003l.003-.003.006-.006.02-.02a6.737 6.737 0 0 0 .275-.32 8.28 8.28 0 0 0 .625-.89c.446-.73.938-1.803.938-3.008 0-2.993-2.345-5.472-5.3-5.472-1.912 0-3.57 1.038-4.5 2.582z" clip-rule="evenodd"></path></symbol><symbol id="ruler-ic_home"><path fill="#000" fill-rule="evenodd" d="M3.7 4.75c0-.58.47-1.05 1.05-1.05h7.05v8.1H3.7V4.75zm1.6.55v4.9h4.9V5.3H5.3zm7.4-1.6h7.05c.58 0 1.05.47 1.05 1.05v7.05h-8.1V3.7zm1.6 1.6v4.9h4.9V5.3h-4.9zM3.7 12.7h8.1v8.1H4.75c-.58 0-1.05-.47-1.05-1.05V12.7zm1.6 1.6v4.9h4.9v-4.9H5.3zm7.4-1.6h8.1v7.05c0 .58-.47 1.05-1.05 1.05H12.7v-8.1zm1.6 1.6v4.9h4.9v-4.9h-4.9z" clip-rule="evenodd"></path></symbol><symbol id="ruler-ic_house"><path fill="#000" fill-rule="evenodd" d="M11.309 2.542a1.05 1.05 0 0 1 1.381 0l7.751 6.781c.23.2.36.488.36.79V20.75c0 .58-.47 1.05-1.05 1.05H4.25c-.58 0-1.05-.47-1.05-1.05V10.113c0-.302.13-.59.359-.79l7.748-6.78zm.69 1.52-7.2 6.3V20.2h6.4V13h1.6v7.2h6.4v-9.837l-7.2-6.3z" clip-rule="evenodd"></path></symbol><symbol id="ruler-ic_my"><path fill="#000" fill-rule="evenodd" d="M12.8 3.25v-.8h-1.6v6.6h1.6v-5.8zm-8 17.5v-8.2h14.4v9h1.6V12c0-.58-.47-1.05-1.05-1.05H4.25A1.05 1.05 0 0 0 3.2 12v9.55h1.6v-.8z" clip-rule="evenodd"></path></symbol><symbol id="ruler-ic_search"><path fill="#000" fill-rule="evenodd" d="M10.9 4.3a6.6 6.6 0 1 0 0 13.2 6.6 6.6 0 0 0 0-13.2zm-8.2 6.6a8.2 8.2 0 1 1 14.53 5.214l3.834 3.82-1.128 1.133-3.84-3.823A8.2 8.2 0 0 1 2.7 10.9z" clip-rule="evenodd"></path></symbol><symbol id="ruler-ic_search_list"><path fill="#000" fill-rule="evenodd" d="M2 6.8V5.2h4.8v1.6H2zM2 18.8v-1.6h8.8v1.6H2zM2 12.8v-1.6h4.8v1.6H2zM14.659 5.8a4.86 4.86 0 1 0-.001 9.718 4.86 4.86 0 0 0-.001-9.718zm-6.46 4.859A6.46 6.46 0 1 1 19.75 14.63l2.815 2.801-1.13 1.134-2.816-2.805A6.46 6.46 0 0 1 8.2 10.659z" clip-rule="evenodd"></path></symbol><symbol id="ruler-ic_setting"><path fill="#000" d="M13.642 21.8h-3.254c-.24 0-.47-.07-.67-.21-.2-.14-.34-.33-.42-.56l-.592-1.68a8.866 8.866 0 0 1-1.652-.907l-1.853.36a1.1 1.1 0 0 1-.69-.08c-.23-.1-.41-.26-.53-.47l-1.61-2.66c-.13-.22-.19-.47-.16-.72s.13-.48.3-.67l1.22-1.308c-.07-.59-.07-1.18 0-1.77l-1.223-1.32c-.17-.18-.28-.42-.3-.67-.03-.25.03-.51.16-.72L3.98 5.75c.12-.2.3-.36.52-.46.22-.1.46-.12.69-.08l1.855.36c.51-.36 1.06-.67 1.652-.91l.58-1.68a1.175 1.175 0 0 1 1.092-.78h3.254c.24 0 .47.07.67.21.2.14.34.34.42.56l.582 1.68a8.86 8.86 0 0 1 1.652.908l1.853-.36c.23-.05.47-.02.69.08.22.1.4.26.53.46l1.612 2.67c.13.22.19.47.16.72s-.13.49-.31.68l-1.212 1.307c.07.59.07 1.18 0 1.77l1.222 1.31c.17.19.28.42.3.67.03.25-.03.5-.16.71L20.02 18.24a1.165 1.165 0 0 1-1.22.54l-1.855-.36c-.51.37-1.07.67-1.652.91l-.58 1.678c-.08.23-.23.42-.42.56-.19.14-.43.21-.67.21l.02.02zm-2.944-1.6h2.634l.73-2.088.36-.13a6.83 6.83 0 0 0 1.873-1.03l.29-.22 2.264.44 1.28-2.12-1.523-1.638.06-.39c.11-.68.11-1.36 0-2.038l-.07-.39 1.522-1.64-1.282-2.118-2.264.44-.29-.22a6.71 6.71 0 0 0-1.873-1.03l-.36-.13-.73-2.09h-2.624l-.73 2.09-.36.13c-.67.24-1.303.59-1.873 1.03l-.29.22-2.264-.44L3.9 8.955l1.52 1.64-.06.39c-.11.68-.11 1.358 0 2.037l.06.39-1.52 1.64 1.28 2.118 2.264-.44.29.22c.56.44 1.192.79 1.873 1.03l.36.13.73 2.09zm3.925-7.395H9.407v-1.6h5.206v1.6h.01z"></path></symbol></svg>