<svg xmlns="http://www.w3.org/2000/svg" width="24" height="24" fill="none"><path fill="#000" fill-rule="evenodd" d="M8.828 3.747A4.615 4.615 0 0 1 12 2.5c1.185 0 2.327.446 3.172 1.247a4.214 4.214 0 0 1 1.297 2.542h3.328a.7.7 0 0 1 .702.69v13.83c0 .403-.332.69-.702.69H4.195a.71.71 0 0 1-.476-.191.69.69 0 0 1-.22-.487V6.98c0-.403.332-.69.702-.69H7.53a4.214 4.214 0 0 1 1.298-2.543zM8.54 6.289h6.92a3.22 3.22 0 0 0-.975-1.817A3.616 3.616 0 0 0 12 3.5c-.937 0-1.83.353-2.485.973a3.222 3.222 0 0 0-.974 1.816zm-4.04 1V20.5h15v-6.105H12v-1h7.5V7.289h-15z" clip-rule="evenodd"/></svg>