<svg xmlns="http://www.w3.org/2000/svg" width="24" height="24" fill="none"><path fill="#000" fill-rule="evenodd" d="M12 3.5a5.184 5.184 0 0 0-3.693 1.554 5.358 5.358 0 0 0-1.534 3.76v4.91l-.978 2.04h12.41l-.978-2.04v-4.91a5.358 5.358 0 0 0-1.534-3.76A5.184 5.184 0 0 0 12 3.5zm-4.406.852A6.184 6.184 0 0 1 12 2.5c1.654 0 3.239.667 4.406 1.852a6.357 6.357 0 0 1 1.82 4.46v4.685l1.569 3.266H4.205l1.568-3.266V8.813c0-1.672.654-3.277 1.821-4.461zM12 21.5c-2.013 0-3.767-1.433-3.767-3.342h1c0 1.23 1.171 2.342 2.767 2.342s2.767-1.112 2.767-2.342h1c0 1.909-1.754 3.342-3.767 3.342z" clip-rule="evenodd"/></svg>