<svg xmlns="http://www.w3.org/2000/svg" width="24" height="24" fill="none"><path fill="#000" d="M13.64 21.5h-3.25c-.18 0-.35-.05-.501-.16a.767.767 0 0 1-.311-.42l-.632-1.811a8.19 8.19 0 0 1-1.81-1.002l-1.982.39c-.17.03-.35.01-.51-.06a.832.832 0 0 1-.39-.35l-1.63-2.661a.85.85 0 0 1-.12-.54c.02-.19.1-.36.22-.49l1.31-1.411a7.301 7.301 0 0 1 0-1.981l-1.3-1.411a.895.895 0 0 1-.23-.49.85.85 0 0 1 .12-.54l1.61-2.672c.09-.15.22-.27.39-.34.16-.07.34-.09.52-.06l1.981.39c.56-.41 1.171-.75 1.811-1l.63-1.802c.06-.17.17-.31.31-.42a.83.83 0 0 1 .501-.16h3.25a.9.9 0 0 1 .501.16.8.8 0 0 1 .311.42l.632 1.801c.65.261 1.25.592 1.81 1.002l1.982-.39c.17-.03.35-.01.51.06s.3.19.39.34l1.61 2.671c.1.16.14.35.12.53a.86.86 0 0 1-.23.5l-1.31 1.411a7.3 7.3 0 0 1 0 1.982l1.31 1.41c.13.14.21.31.22.5a.82.82 0 0 1-.12.53l-1.61 2.672c-.09.15-.22.27-.39.34a.93.93 0 0 1-.52.06l-1.981-.39c-.56.41-1.171.75-1.811 1l-.63 1.812c-.06.17-.17.31-.31.42-.14.1-.321.16-.501.16h.03zm-3.15-1h3.05l.751-2.162.221-.08a7.016 7.016 0 0 0 1.952-1.08l.18-.14 2.332.45 1.51-2.491-1.57-1.691.04-.24c.12-.71.12-1.431 0-2.142l-.04-.24 1.57-1.69-1.51-2.502-2.332.46-.18-.14a7.3 7.3 0 0 0-1.95-1.08l-.22-.08-.751-2.161h-3.05l-.751 2.162-.221.08c-.702.25-1.362.62-1.952 1.08l-.18.14-2.332-.46-1.51 2.501 1.57 1.691-.04.24a6.41 6.41 0 0 0 0 2.142l.04.24-1.57 1.69 1.51 2.492 2.332-.45.18.14c.59.46 1.24.82 1.95 1.08l.22.08.751 2.162zm3.821-8.005H9.71v-1h4.601v1z"/></svg>